<svg xmlns="http://www.w3.org/2000/svg" xmlns:xlink="http://www.w3.org/1999/xlink" xml:space="preserve" version="1.1" style="shape-rendering:geometricPrecision;text-rendering:geometricPrecision;image-rendering:optimizeQuality;" viewBox="0 0 333 416.25" x="0px" y="0px" fill-rule="evenodd" clip-rule="evenodd"><defs><style type="text/css">
   
    .fil0 {fill:black}
   
  </style></defs><g><path class="fil0" d="M143 169l0 13 100 -66 0 -13 -100 66 -101 -66 0 -42 101 66 0 42zm-24 138l51 -44 15 14 -50 46c-9,8 -24,-8 -16,-16zm102 -130c5,-2 9,8 3,10 -7,2 -6,-1 -7,-3 -1,-2 -2,-5 4,-7zm-7 16c-11,6 -16,19 -18,32 -4,-15 -2,-31 12,-41 6,-4 11,5 6,9zm14 -45c35,0 63,28 63,63 0,35 -28,63 -63,63 -31,0 -56,-23 -61,-53l-24 16 0 -13 0 -42 -101 -66 0 42 101 66 23 -15c1,-34 29,-61 62,-61zm0 18c25,0 45,20 45,45 0,25 -20,45 -45,45 -24,0 -44,-20 -44,-45 0,-25 20,-45 44,-45zm-85 114l-101 -66 0 -42 101 66 0 42zm-96 -228l97 64 89 -52 -100 -56 -86 44zm37 4l18 11 50 -28 -18 -11 -50 28z"/></g><text x="0" y="348" fill="#000000" font-size="5px" font-weight="bold" font-family="'Helvetica Neue', Helvetica, Arial-Unicode, Arial, Sans-serif">Created by Cantasia</text><text x="0" y="353" fill="#000000" font-size="5px" font-weight="bold" font-family="'Helvetica Neue', Helvetica, Arial-Unicode, Arial, Sans-serif">from the Noun Project</text></svg>